<?xml version="1.0" encoding="utf-8"?>
<!-- Generator: Adobe Illustrator 27.4.1, SVG Export Plug-In . SVG Version: 6.00 Build 0)  -->
<svg version="1.1" id="Layer_1" xmlns="http://www.w3.org/2000/svg" xmlns:xlink="http://www.w3.org/1999/xlink" x="0px" y="0px"
	 viewBox="0 0 64 64" style="enable-background:new 0 0 64 64;" xml:space="preserve">
<style type="text/css">
	.st0{fill:#F15733;}
	.st1{clip-path:url(#SVGID_00000119095504835961705660000010652882220228762499_);}
	.st2{fill:#C52D27;}
</style>
<circle class="st0" cx="32" cy="32" r="32"/>
<g>
	<defs>
		<circle id="SVGID_1_" cx="32" cy="32" r="32"/>
	</defs>
	<clipPath id="SVGID_00000020375226185427782100000000832177580986961589_">
		<use xlink:href="#SVGID_1_"  style="overflow:visible;"/>
	</clipPath>
	<g style="clip-path:url(#SVGID_00000020375226185427782100000000832177580986961589_);">
		<path class="st2" d="M26.8,41.6L8,49.8c-3.1,1.3-6.6-0.1-7.9-3.2l0,0c-1.3-3.1,0.1-6.6,3.2-7.9l18.9-8.1c3.1-1.3,6.6,0.1,7.9,3.2
			l0,0C31.3,36.8,29.9,40.3,26.8,41.6z"/>
		<path class="st2" d="M52.1,30.8l-10.4,4.5c-3.1,1.3-6.6-0.1-7.9-3.2l0,0c-1.3-3.1,0.1-6.6,3.2-7.9l10.4-4.5
			c3.1-1.3,6.6,0.1,7.9,3.2l0,0C56.5,25.9,55.1,29.5,52.1,30.8z"/>
		<path class="st2" d="M54.7,9.3L21.8,23.4c-3.1,1.3-6.6-0.1-7.9-3.2l0,0c-1.3-3.1,0.1-6.6,3.2-7.9L49.9-1.8
			c3.1-1.3,6.6,0.1,7.9,3.2l0,0C59.2,4.4,57.8,7.9,54.7,9.3z"/>
		<path class="st2" d="M50.1,52l-38,16.4c-3.1,1.3-6.6-0.1-7.9-3.2l0,0c-1.3-3.1,0.1-6.6,3.2-7.9l38-16.4c3.1-1.3,6.6,0.1,7.9,3.2
			l0,0C54.6,47.1,53.2,50.6,50.1,52z"/>
	</g>
</g>
</svg>
